-- Credit SnoFlak (https://www.coregames.com/user/84b064788d324156ad7fbdb6be82f5fc)
-- Thanks bb <3 ♥ <3

return [[{
  "header": {
    "keySignatures": [],
    "meta": [],
    "name": "",
    "ppq": 96,
    "tempos": [
      {
        "bpm": 94.99999208333399,
        "ticks": 0
      }
    ],
    "timeSignatures": [
      {
        "ticks": 0,
        "timeSignature": [
          4,
          4
        ],
        "measures": 0
      }
    ]
  },
  "tracks": [
    {
      "channel": 0,
      "controlChanges": {},
      "pitchBends": [],
      "instrument": {
        "family": "piano",
        "name": "acoustic grand piano",
        "number": 0
      },
      "name": "",
      "notes": [],
      "endOfTrackTicks": 0
    },
    {
      "channel": 0,
      "controlChanges": {
        "6": [
          {
            "number": 6,
            "ticks": 0,
            "time": 0,
            "value": 0.09448818897637795
          },
          {
            "number": 6,
            "ticks": 0,
            "time": 0,
            "value": 0.09448818897637795
          },
          {
            "number": 6,
            "ticks": 0,
            "time": 0,
            "value": 0.09448818897637795
          },
          {
            "number": 6,
            "ticks": 6144,
            "time": 40.421056,
            "value": 0.09448818897637795
          },
          {
            "number": 6,
            "ticks": 6145,
            "time": 40.42763494791667,
            "value": 0.09448818897637795
          }
        ],
        "7": [
          {
            "number": 7,
            "ticks": 0,
            "time": 0,
            "value": 0.7874015748031497
          },
          {
            "number": 7,
            "ticks": 0,
            "time": 0,
            "value": 0.7874015748031497
          },
          {
            "number": 7,
            "ticks": 0,
            "time": 0,
            "value": 0.7874015748031497
          },
          {
            "number": 7,
            "ticks": 0,
            "time": 0,
            "value": 0.7874015748031497
          },
          {
            "number": 7,
            "ticks": 6144,
            "time": 40.421056,
            "value": 0.7874015748031497
          },
          {
            "number": 7,
            "ticks": 6145,
            "time": 40.42763494791667,
            "value": 0.7874015748031497
          }
        ],
        "10": [
          {
            "number": 10,
            "ticks": 0,
            "time": 0,
            "value": 0.5039370078740157
          },
          {
            "number": 10,
            "ticks": 0,
            "time": 0,
            "value": 0.5039370078740157
          },
          {
            "number": 10,
            "ticks": 0,
            "time": 0,
            "value": 0.5039370078740157
          },
          {
            "number": 10,
            "ticks": 0,
            "time": 0,
            "value": 0.5039370078740157
          },
          {
            "number": 10,
            "ticks": 6144,
            "time": 40.421056,
            "value": 0.5039370078740157
          },
          {
            "number": 10,
            "ticks": 6145,
            "time": 40.42763494791667,
            "value": 0.5039370078740157
          }
        ],
        "100": [
          {
            "number": 100,
            "ticks": 0,
            "time": 0,
            "value": 0
          },
          {
            "number": 100,
            "ticks": 0,
            "time": 0,
            "value": 0
          },
          {
            "number": 100,
            "ticks": 0,
            "time": 0,
            "value": 0
          },
          {
            "number": 100,
            "ticks": 6144,
            "time": 40.421056,
            "value": 0
          },
          {
            "number": 100,
            "ticks": 6145,
            "time": 40.42763494791667,
            "value": 0
          }
        ],
        "101": [
          {
            "number": 101,
            "ticks": 0,
            "time": 0,
            "value": 0
          },
          {
            "number": 101,
            "ticks": 0,
            "time": 0,
            "value": 0
          },
          {
            "number": 101,
            "ticks": 0,
            "time": 0,
            "value": 0
          },
          {
            "number": 101,
            "ticks": 6144,
            "time": 40.421056,
            "value": 0
          },
          {
            "number": 101,
            "ticks": 6145,
            "time": 40.42763494791667,
            "value": 0
          }
        ]
      },
      "pitchBends": [
        {
          "ticks": 0,
          "time": 0,
          "value": 0
        },
        {
          "ticks": 0,
          "time": 0,
          "value": 0
        },
        {
          "ticks": 0,
          "time": 0,
          "value": 0
        },
        {
          "ticks": 0,
          "time": 0,
          "value": 0
        },
        {
          "ticks": 6144,
          "time": 40.421056,
          "value": 0
        },
        {
          "ticks": 6145,
          "time": 40.42763494791667,
          "value": 0
        }
      ],
      "instrument": {
        "family": "piano",
        "name": "acoustic grand piano",
        "number": 0
      },
      "name": "Channel #1",
      "notes": [
        {
          "duration": 2.2105265000000003,
          "durationTicks": 336,
          "midi": 60,
          "name": "C4",
          "ticks": 3072,
          "time": 20.210528,
          "velocity": 0.7874015748031497
        },
        {
          "duration": 0.31578950000000106,
          "durationTicks": 48,
          "midi": 59,
          "name": "B3",
          "ticks": 3408,
          "time": 22.4210545,
          "velocity": 0.7874015748031497
        },
        {
          "duration": 0.6315789999999986,
          "durationTicks": 96,
          "midi": 60,
          "name": "C4",
          "ticks": 3456,
          "time": 22.736844,
          "velocity": 0.7874015748031497
        },
        {
          "duration": 0.6315789999999986,
          "durationTicks": 96,
          "midi": 62,
          "name": "D4",
          "ticks": 3552,
          "time": 23.368423,
          "velocity": 0.7874015748031497
        },
        {
          "duration": 0.6315790000000021,
          "durationTicks": 96,
          "midi": 63,
          "name": "D#4",
          "ticks": 3648,
          "time": 24.000002,
          "velocity": 0.7874015748031497
        },
        {
          "duration": 0.6315789999999986,
          "durationTicks": 96,
          "midi": 59,
          "name": "B3",
          "ticks": 3744,
          "time": 24.631581,
          "velocity": 0.7874015748031497
        },
        {
          "duration": 0.31578950000000106,
          "durationTicks": 48,
          "midi": 68,
          "name": "G#4",
          "ticks": 3840,
          "time": 25.26316,
          "velocity": 0.7952755905511811
        },
        {
          "duration": 0.31578950000000106,
          "durationTicks": 48,
          "midi": 62,
          "name": "D4",
          "ticks": 3888,
          "time": 25.5789495,
          "velocity": 0.7952755905511811
        },
        {
          "duration": 0.3157894999999975,
          "durationTicks": 48,
          "midi": 68,
          "name": "G#4",
          "ticks": 3936,
          "time": 25.894739,
          "velocity": 0.7952755905511811
        },
        {
          "duration": 0.31578950000000106,
          "durationTicks": 48,
          "midi": 72,
          "name": "C5",
          "ticks": 3984,
          "time": 26.2105285,
          "velocity": 0.7952755905511811
        },
        {
          "duration": 0.31578950000000106,
          "durationTicks": 48,
          "midi": 68,
          "name": "G#4",
          "ticks": 4032,
          "time": 26.526318,
          "velocity": 0.7952755905511811
        },
        {
          "duration": 0.3157894999999975,
          "durationTicks": 48,
          "midi": 62,
          "name": "D4",
          "ticks": 4080,
          "time": 26.8421075,
          "velocity": 0.7952755905511811
        },
        {
          "duration": 0.31578950000000106,
          "durationTicks": 48,
          "midi": 68,
          "name": "G#4",
          "ticks": 4128,
          "time": 27.157897,
          "velocity": 0.7952755905511811
        },
        {
          "duration": 0.31578950000000106,
          "durationTicks": 48,
          "midi": 72,
          "name": "C5",
          "ticks": 4176,
          "time": 27.4736865,
          "velocity": 0.7952755905511811
        },
        {
          "duration": 0.31578950000000106,
          "durationTicks": 48,
          "midi": 67,
          "name": "G4",
          "ticks": 4224,
          "time": 27.789476,
          "velocity": 0.7952755905511811
        },
        {
          "duration": 0.3157894999999975,
          "durationTicks": 48,
          "midi": 59,
          "name": "B3",
          "ticks": 4272,
          "time": 28.1052655,
          "velocity": 0.7952755905511811
        },
        {
          "duration": 0.31578950000000106,
          "durationTicks": 48,
          "midi": 67,
          "name": "G4",
          "ticks": 4320,
          "time": 28.421055,
          "velocity": 0.7952755905511811
        },
        {
          "duration": 0.31578950000000106,
          "durationTicks": 48,
          "midi": 71,
          "name": "B4",
          "ticks": 4368,
          "time": 28.7368445,
          "velocity": 0.7952755905511811
        },
        {
          "duration": 0.3157894999999975,
          "durationTicks": 48,
          "midi": 67,
          "name": "G4",
          "ticks": 4416,
          "time": 29.052634,
          "velocity": 0.7952755905511811
        },
        {
          "duration": 0.31578950000000106,
          "durationTicks": 48,
          "midi": 59,
          "name": "B3",
          "ticks": 4464,
          "time": 29.3684235,
          "velocity": 0.7952755905511811
        },
        {
          "duration": 0.31578950000000106,
          "durationTicks": 48,
          "midi": 67,
          "name": "G4",
          "ticks": 4512,
          "time": 29.684213,
          "velocity": 0.7952755905511811
        },
        {
          "duration": 0.31578950000000106,
          "durationTicks": 48,
          "midi": 71,
          "name": "B4",
          "ticks": 4560,
          "time": 30.0000025,
          "velocity": 0.7952755905511811
        },
        {
          "duration": 0.3157894999999975,
          "durationTicks": 48,
          "midi": 63,
          "name": "D#4",
          "ticks": 4608,
          "time": 30.315792000000002,
          "velocity": 0.33070866141732286
        },
        {
          "duration": 0.3157894999999975,
          "durationTicks": 48,
          "midi": 60,
          "name": "C4",
          "ticks": 4608,
          "time": 30.315792000000002,
          "velocity": 0.7952755905511811
        },
        {
          "duration": 0.31578950000000106,
          "durationTicks": 48,
          "midi": 62,
          "name": "D4",
          "ticks": 4656,
          "time": 30.6315815,
          "velocity": 0.33070866141732286
        },
        {
          "duration": 0.31578950000000106,
          "durationTicks": 48,
          "midi": 59,
          "name": "B3",
          "ticks": 4656,
          "time": 30.6315815,
          "velocity": 0.7952755905511811
        },
        {
          "duration": 0.31578950000000106,
          "durationTicks": 48,
          "midi": 63,
          "name": "D#4",
          "ticks": 4704,
          "time": 30.947371,
          "velocity": 0.3228346456692913
        },
        {
          "duration": 0.31578950000000106,
          "durationTicks": 48,
          "midi": 60,
          "name": "C4",
          "ticks": 4704,
          "time": 30.947371,
          "velocity": 0.7952755905511811
        },
        {
          "duration": 0.3157894999999975,
          "durationTicks": 48,
          "midi": 62,
          "name": "D4",
          "ticks": 4752,
          "time": 31.2631605,
          "velocity": 0.31496062992125984
        },
        {
          "duration": 0.3157894999999975,
          "durationTicks": 48,
          "midi": 59,
          "name": "B3",
          "ticks": 4752,
          "time": 31.2631605,
          "velocity": 0.7952755905511811
        },
        {
          "duration": 0.31578950000000106,
          "durationTicks": 48,
          "midi": 63,
          "name": "D#4",
          "ticks": 4800,
          "time": 31.57895,
          "velocity": 0.33070866141732286
        },
        {
          "duration": 0.31578950000000106,
          "durationTicks": 48,
          "midi": 60,
          "name": "C4",
          "ticks": 4800,
          "time": 31.57895,
          "velocity": 0.7952755905511811
        },
        {
          "duration": 0.31578950000000106,
          "durationTicks": 48,
          "midi": 63,
          "name": "D#4",
          "ticks": 4896,
          "time": 32.210529,
          "velocity": 0.33070866141732286
        },
        {
          "duration": 0.31578950000000106,
          "durationTicks": 48,
          "midi": 60,
          "name": "C4",
          "ticks": 4896,
          "time": 32.210529,
          "velocity": 0.7952755905511811
        },
        {
          "duration": 0.31578950000000106,
          "durationTicks": 48,
          "midi": 62,
          "name": "D4",
          "ticks": 5040,
          "time": 33.1578975,
          "velocity": 0.33070866141732286
        },
        {
          "duration": 0.31578950000000106,
          "durationTicks": 48,
          "midi": 59,
          "name": "B3",
          "ticks": 5040,
          "time": 33.1578975,
          "velocity": 0.7952755905511811
        },
        {
          "duration": 0.31578950000000106,
          "durationTicks": 48,
          "midi": 63,
          "name": "D#4",
          "ticks": 5088,
          "time": 33.473687,
          "velocity": 0.33070866141732286
        },
        {
          "duration": 0.31578950000000106,
          "durationTicks": 48,
          "midi": 60,
          "name": "C4",
          "ticks": 5088,
          "time": 33.473687,
          "velocity": 0.7952755905511811
        },
        {
          "duration": 0.31578950000000106,
          "durationTicks": 48,
          "midi": 63,
          "name": "D#4",
          "ticks": 5184,
          "time": 34.105266,
          "velocity": 0.33070866141732286
        },
        {
          "duration": 0.31578950000000106,
          "durationTicks": 48,
          "midi": 60,
          "name": "C4",
          "ticks": 5184,
          "time": 34.105266,
          "velocity": 0.7952755905511811
        },
        {
          "duration": 0.31578950000000106,
          "durationTicks": 48,
          "midi": 62,
          "name": "D4",
          "ticks": 5280,
          "time": 34.736845,
          "velocity": 0.3228346456692913
        },
        {
          "duration": 0.31578950000000106,
          "durationTicks": 48,
          "midi": 59,
          "name": "B3",
          "ticks": 5280,
          "time": 34.736845,
          "velocity": 0.7716535433070866
        },
        {
          "duration": 0.31578950000000106,
          "durationTicks": 48,
          "midi": 68,
          "name": "G#4",
          "ticks": 5376,
          "time": 35.368424,
          "velocity": 0.7952755905511811
        },
        {
          "duration": 0.31578950000000106,
          "durationTicks": 48,
          "midi": 62,
          "name": "D4",
          "ticks": 5424,
          "time": 35.6842135,
          "velocity": 0.7952755905511811
        },
        {
          "duration": 0.31578950000000106,
          "durationTicks": 48,
          "midi": 68,
          "name": "G#4",
          "ticks": 5472,
          "time": 36.000003,
          "velocity": 0.7952755905511811
        },
        {
          "duration": 0.31578950000000106,
          "durationTicks": 48,
          "midi": 72,
          "name": "C5",
          "ticks": 5520,
          "time": 36.3157925,
          "velocity": 0.7952755905511811
        },
        {
          "duration": 0.31578950000000106,
          "durationTicks": 48,
          "midi": 68,
          "name": "G#4",
          "ticks": 5568,
          "time": 36.631582,
          "velocity": 0.7952755905511811
        },
        {
          "duration": 0.31578949999999395,
          "durationTicks": 48,
          "midi": 62,
          "name": "D4",
          "ticks": 5616,
          "time": 36.9473715,
          "velocity": 0.7952755905511811
        },
        {
          "duration": 0.31578950000000106,
          "durationTicks": 48,
          "midi": 68,
          "name": "G#4",
          "ticks": 5664,
          "time": 37.263161,
          "velocity": 0.7952755905511811
        },
        {
          "duration": 0.31578950000000106,
          "durationTicks": 48,
          "midi": 72,
          "name": "C5",
          "ticks": 5712,
          "time": 37.5789505,
          "velocity": 0.7952755905511811
        },
        {
          "duration": 0.31578950000000106,
          "durationTicks": 48,
          "midi": 67,
          "name": "G4",
          "ticks": 5760,
          "time": 37.89474,
          "velocity": 0.7952755905511811
        },
        {
          "duration": 0.31578950000000106,
          "durationTicks": 48,
          "midi": 59,
          "name": "B3",
          "ticks": 5808,
          "time": 38.2105295,
          "velocity": 0.7952755905511811
        },
        {
          "duration": 0.31578950000000106,
          "durationTicks": 48,
          "midi": 67,
          "name": "G4",
          "ticks": 5856,
          "time": 38.526319,
          "velocity": 0.7952755905511811
        },
        {
          "duration": 0.31578950000000106,
          "durationTicks": 48,
          "midi": 71,
          "name": "B4",
          "ticks": 5904,
          "time": 38.8421085,
          "velocity": 0.7952755905511811
        },
        {
          "duration": 0.31578949999999395,
          "durationTicks": 48,
          "midi": 67,
          "name": "G4",
          "ticks": 5952,
          "time": 39.157898,
          "velocity": 0.7952755905511811
        },
        {
          "duration": 0.31578950000000106,
          "durationTicks": 48,
          "midi": 59,
          "name": "B3",
          "ticks": 6000,
          "time": 39.4736875,
          "velocity": 0.7952755905511811
        },
        {
          "duration": 0.31578950000000106,
          "durationTicks": 48,
          "midi": 67,
          "name": "G4",
          "ticks": 6048,
          "time": 39.789477,
          "velocity": 0.7952755905511811
        },
        {
          "duration": 0.3092105520833357,
          "durationTicks": 47,
          "midi": 71,
          "name": "B4",
          "ticks": 6096,
          "time": 40.1052665,
          "velocity": 0.7952755905511811
        }
      ],
      "endOfTrackTicks": 6145
    },
    {
      "channel": 1,
      "controlChanges": {
        "6": [
          {
            "number": 6,
            "ticks": 0,
            "time": 0,
            "value": 0.09448818897637795
          },
          {
            "number": 6,
            "ticks": 0,
            "time": 0,
            "value": 0.09448818897637795
          },
          {
            "number": 6,
            "ticks": 0,
            "time": 0,
            "value": 0.09448818897637795
          },
          {
            "number": 6,
            "ticks": 6144,
            "time": 40.421056,
            "value": 0.09448818897637795
          },
          {
            "number": 6,
            "ticks": 6145,
            "time": 40.42763494791667,
            "value": 0.09448818897637795
          }
        ],
        "7": [
          {
            "number": 7,
            "ticks": 0,
            "time": 0,
            "value": 0.7874015748031497
          },
          {
            "number": 7,
            "ticks": 0,
            "time": 0,
            "value": 0.7874015748031497
          },
          {
            "number": 7,
            "ticks": 0,
            "time": 0,
            "value": 0.7874015748031497
          },
          {
            "number": 7,
            "ticks": 0,
            "time": 0,
            "value": 0.7874015748031497
          },
          {
            "number": 7,
            "ticks": 6144,
            "time": 40.421056,
            "value": 0.7874015748031497
          },
          {
            "number": 7,
            "ticks": 6145,
            "time": 40.42763494791667,
            "value": 0.7874015748031497
          }
        ],
        "10": [
          {
            "number": 10,
            "ticks": 0,
            "time": 0,
            "value": 0.5039370078740157
          },
          {
            "number": 10,
            "ticks": 0,
            "time": 0,
            "value": 0.5039370078740157
          },
          {
            "number": 10,
            "ticks": 0,
            "time": 0,
            "value": 0.5039370078740157
          },
          {
            "number": 10,
            "ticks": 0,
            "time": 0,
            "value": 0.5039370078740157
          },
          {
            "number": 10,
            "ticks": 6144,
            "time": 40.421056,
            "value": 0.5039370078740157
          },
          {
            "number": 10,
            "ticks": 6145,
            "time": 40.42763494791667,
            "value": 0.5039370078740157
          }
        ],
        "100": [
          {
            "number": 100,
            "ticks": 0,
            "time": 0,
            "value": 0
          },
          {
            "number": 100,
            "ticks": 0,
            "time": 0,
            "value": 0
          },
          {
            "number": 100,
            "ticks": 0,
            "time": 0,
            "value": 0
          },
          {
            "number": 100,
            "ticks": 6144,
            "time": 40.421056,
            "value": 0
          },
          {
            "number": 100,
            "ticks": 6145,
            "time": 40.42763494791667,
            "value": 0
          }
        ],
        "101": [
          {
            "number": 101,
            "ticks": 0,
            "time": 0,
            "value": 0
          },
          {
            "number": 101,
            "ticks": 0,
            "time": 0,
            "value": 0
          },
          {
            "number": 101,
            "ticks": 0,
            "time": 0,
            "value": 0
          },
          {
            "number": 101,
            "ticks": 6144,
            "time": 40.421056,
            "value": 0
          },
          {
            "number": 101,
            "ticks": 6145,
            "time": 40.42763494791667,
            "value": 0
          }
        ]
      },
      "pitchBends": [
        {
          "ticks": 0,
          "time": 0,
          "value": 0
        },
        {
          "ticks": 0,
          "time": 0,
          "value": 0
        },
        {
          "ticks": 0,
          "time": 0,
          "value": 0
        },
        {
          "ticks": 0,
          "time": 0,
          "value": 0
        },
        {
          "ticks": 6144,
          "time": 40.421056,
          "value": 0
        },
        {
          "ticks": 6145,
          "time": 40.42763494791667,
          "value": 0
        }
      ],
      "instrument": {
        "family": "wind",
        "name": "recorder",
        "number": 0
      },
      "name": "Channel #1",
      "notes": [
        {
          "duration": 3.157895,
          "durationTicks": 480,
          "midi": 60,
          "name": "C4",
          "ticks": 0,
          "time": 0,
          "velocity": 0.7874015748031497
        },
        {
          "duration": 0.6315790000000003,
          "durationTicks": 96,
          "midi": 62,
          "name": "D4",
          "ticks": 480,
          "time": 3.157895,
          "velocity": 0.7874015748031497
        },
        {
          "duration": 0.6315789999999994,
          "durationTicks": 96,
          "midi": 63,
          "name": "D#4",
          "ticks": 576,
          "time": 3.7894740000000002,
          "velocity": 0.7874015748031497
        },
        {
          "duration": 0.6315790000000003,
          "durationTicks": 96,
          "midi": 59,
          "name": "B3",
          "ticks": 672,
          "time": 4.421053,
          "velocity": 0.7874015748031497
        },
        {
          "duration": 2.5263160000000005,
          "durationTicks": 384,
          "midi": 68,
          "name": "G#4",
          "ticks": 768,
          "time": 5.052632,
          "velocity": 0.7874015748031497
        },
        {
          "duration": 2.5263159999999996,
          "durationTicks": 384,
          "midi": 67,
          "name": "G4",
          "ticks": 1152,
          "time": 7.5789480000000005,
          "velocity": 0.7874015748031497
        },
        {
          "duration": 3.157895,
          "durationTicks": 480,
          "midi": 60,
          "name": "C4",
          "ticks": 1536,
          "time": 10.105264,
          "velocity": 0.7874015748031497
        },
        {
          "duration": 0.6315790000000003,
          "durationTicks": 96,
          "midi": 62,
          "name": "D4",
          "ticks": 2016,
          "time": 13.263159,
          "velocity": 0.7874015748031497
        },
        {
          "duration": 0.6315790000000003,
          "durationTicks": 96,
          "midi": 63,
          "name": "D#4",
          "ticks": 2112,
          "time": 13.894738,
          "velocity": 0.7874015748031497
        },
        {
          "duration": 0.6315790000000003,
          "durationTicks": 96,
          "midi": 59,
          "name": "B3",
          "ticks": 2208,
          "time": 14.526317,
          "velocity": 0.7874015748031497
        },
        {
          "duration": 2.526315999999998,
          "durationTicks": 384,
          "midi": 68,
          "name": "G#4",
          "ticks": 2304,
          "time": 15.157896000000001,
          "velocity": 0.7874015748031497
        },
        {
          "duration": 2.5263160000000013,
          "durationTicks": 384,
          "midi": 71,
          "name": "B4",
          "ticks": 2688,
          "time": 17.684212,
          "velocity": 0.7874015748031497
        },
        {
          "duration": 3.157895,
          "durationTicks": 480,
          "midi": 72,
          "name": "C5",
          "ticks": 3072,
          "time": 20.210528,
          "velocity": 0.7874015748031497
        },
        {
          "duration": 0.6315789999999986,
          "durationTicks": 96,
          "midi": 74,
          "name": "D5",
          "ticks": 3552,
          "time": 23.368423,
          "velocity": 0.7874015748031497
        },
        {
          "duration": 0.6315790000000021,
          "durationTicks": 96,
          "midi": 75,
          "name": "D#5",
          "ticks": 3648,
          "time": 24.000002,
          "velocity": 0.7874015748031497
        },
        {
          "duration": 0.6315789999999986,
          "durationTicks": 96,
          "midi": 71,
          "name": "B4",
          "ticks": 3744,
          "time": 24.631581,
          "velocity": 0.7874015748031497
        },
        {
          "duration": 2.5263160000000013,
          "durationTicks": 384,
          "midi": 80,
          "name": "G#5",
          "ticks": 3840,
          "time": 25.26316,
          "velocity": 0.7874015748031497
        },
        {
          "duration": 2.5263160000000013,
          "durationTicks": 384,
          "midi": 79,
          "name": "G5",
          "ticks": 4224,
          "time": 27.789476,
          "velocity": 0.7874015748031497
        },
        {
          "duration": 3.1578949999999963,
          "durationTicks": 480,
          "midi": 72,
          "name": "C5",
          "ticks": 4608,
          "time": 30.315792000000002,
          "velocity": 0.7874015748031497
        },
        {
          "duration": 0.6315790000000021,
          "durationTicks": 96,
          "midi": 74,
          "name": "D5",
          "ticks": 5088,
          "time": 33.473687,
          "velocity": 0.7874015748031497
        },
        {
          "duration": 0.6315790000000021,
          "durationTicks": 96,
          "midi": 75,
          "name": "D#5",
          "ticks": 5184,
          "time": 34.105266,
          "velocity": 0.7874015748031497
        },
        {
          "duration": 0.631578999999995,
          "durationTicks": 96,
          "midi": 71,
          "name": "B4",
          "ticks": 5280,
          "time": 34.736845,
          "velocity": 0.7874015748031497
        },
        {
          "duration": 2.5263160000000013,
          "durationTicks": 384,
          "midi": 80,
          "name": "G#5",
          "ticks": 5376,
          "time": 35.368424,
          "velocity": 0.7874015748031497
        },
        {
          "duration": 2.519737052083336,
          "durationTicks": 383,
          "midi": 83,
          "name": "B5",
          "ticks": 5760,
          "time": 37.89474,
          "velocity": 0.7874015748031497
        }
      ],
      "endOfTrackTicks": 6145
    },
    {
      "channel": 2,
      "controlChanges": {
        "6": [
          {
            "number": 6,
            "ticks": 0,
            "time": 0,
            "value": 0.09448818897637795
          },
          {
            "number": 6,
            "ticks": 0,
            "time": 0,
            "value": 0.09448818897637795
          },
          {
            "number": 6,
            "ticks": 0,
            "time": 0,
            "value": 0.09448818897637795
          },
          {
            "number": 6,
            "ticks": 6144,
            "time": 40.421056,
            "value": 0.09448818897637795
          },
          {
            "number": 6,
            "ticks": 6145,
            "time": 40.42763494791667,
            "value": 0.09448818897637795
          }
        ],
        "7": [
          {
            "number": 7,
            "ticks": 0,
            "time": 0,
            "value": 0.7874015748031497
          },
          {
            "number": 7,
            "ticks": 0,
            "time": 0,
            "value": 0.7874015748031497
          },
          {
            "number": 7,
            "ticks": 0,
            "time": 0,
            "value": 0.7874015748031497
          },
          {
            "number": 7,
            "ticks": 0,
            "time": 0,
            "value": 0.7874015748031497
          },
          {
            "number": 7,
            "ticks": 6144,
            "time": 40.421056,
            "value": 0.7874015748031497
          },
          {
            "number": 7,
            "ticks": 6145,
            "time": 40.42763494791667,
            "value": 0.7874015748031497
          }
        ],
        "10": [
          {
            "number": 10,
            "ticks": 0,
            "time": 0,
            "value": 0.5039370078740157
          },
          {
            "number": 10,
            "ticks": 0,
            "time": 0,
            "value": 0.5039370078740157
          },
          {
            "number": 10,
            "ticks": 0,
            "time": 0,
            "value": 0.5039370078740157
          },
          {
            "number": 10,
            "ticks": 0,
            "time": 0,
            "value": 0.5039370078740157
          },
          {
            "number": 10,
            "ticks": 6144,
            "time": 40.421056,
            "value": 0.5039370078740157
          },
          {
            "number": 10,
            "ticks": 6145,
            "time": 40.42763494791667,
            "value": 0.5039370078740157
          }
        ],
        "100": [
          {
            "number": 100,
            "ticks": 0,
            "time": 0,
            "value": 0
          },
          {
            "number": 100,
            "ticks": 0,
            "time": 0,
            "value": 0
          },
          {
            "number": 100,
            "ticks": 0,
            "time": 0,
            "value": 0
          },
          {
            "number": 100,
            "ticks": 6144,
            "time": 40.421056,
            "value": 0
          },
          {
            "number": 100,
            "ticks": 6145,
            "time": 40.42763494791667,
            "value": 0
          }
        ],
        "101": [
          {
            "number": 101,
            "ticks": 0,
            "time": 0,
            "value": 0
          },
          {
            "number": 101,
            "ticks": 0,
            "time": 0,
            "value": 0
          },
          {
            "number": 101,
            "ticks": 0,
            "time": 0,
            "value": 0
          },
          {
            "number": 101,
            "ticks": 6144,
            "time": 40.421056,
            "value": 0
          },
          {
            "number": 101,
            "ticks": 6145,
            "time": 40.42763494791667,
            "value": 0
          }
        ]
      },
      "pitchBends": [
        {
          "ticks": 0,
          "time": 0,
          "value": 0
        },
        {
          "ticks": 0,
          "time": 0,
          "value": 0
        },
        {
          "ticks": 0,
          "time": 0,
          "value": 0
        },
        {
          "ticks": 0,
          "time": 0,
          "value": 0
        },
        {
          "ticks": 6144,
          "time": 40.421056,
          "value": 0
        },
        {
          "ticks": 6145,
          "time": 40.42763494791667,
          "value": 0
        }
      ],
      "instrument": {
        "family": "piano",
        "name": "acoustic grand piano",
        "number": 0
      },
      "name": "Channel #1",
      "notes": [
        {
          "duration": 2.526316,
          "durationTicks": 384,
          "midi": 48,
          "name": "C3",
          "ticks": 0,
          "time": 0,
          "velocity": 0.7716535433070866
        },
        {
          "duration": 0.3157895,
          "durationTicks": 48,
          "midi": 50,
          "name": "D3",
          "ticks": 48,
          "time": 0.3157895,
          "velocity": 0.7716535433070866
        },
        {
          "duration": 0.31578950000000006,
          "durationTicks": 48,
          "midi": 51,
          "name": "D#3",
          "ticks": 96,
          "time": 0.631579,
          "velocity": 0.7716535433070866
        },
        {
          "duration": 1.5789475,
          "durationTicks": 240,
          "midi": 55,
          "name": "G3",
          "ticks": 144,
          "time": 0.9473685000000001,
          "velocity": 0.7716535433070866
        },
        {
          "duration": 2.526316,
          "durationTicks": 384,
          "midi": 48,
          "name": "C3",
          "ticks": 384,
          "time": 2.526316,
          "velocity": 0.7716535433070866
        },
        {
          "duration": 0.3157894999999997,
          "durationTicks": 48,
          "midi": 50,
          "name": "D3",
          "ticks": 432,
          "time": 2.8421055,
          "velocity": 0.7716535433070866
        },
        {
          "duration": 0.31578950000000017,
          "durationTicks": 48,
          "midi": 51,
          "name": "D#3",
          "ticks": 480,
          "time": 3.157895,
          "velocity": 0.7716535433070866
        },
        {
          "duration": 1.5789475,
          "durationTicks": 240,
          "midi": 55,
          "name": "G3",
          "ticks": 528,
          "time": 3.4736845,
          "velocity": 0.7716535433070866
        },
        {
          "duration": 2.5263160000000005,
          "durationTicks": 384,
          "midi": 56,
          "name": "G#3",
          "ticks": 768,
          "time": 5.052632,
          "velocity": 0.7716535433070866
        },
        {
          "duration": 2.5263160000000005,
          "durationTicks": 384,
          "midi": 48,
          "name": "C3",
          "ticks": 768,
          "time": 5.052632,
          "velocity": 0.7716535433070866
        },
        {
          "duration": 2.5263159999999996,
          "durationTicks": 384,
          "midi": 55,
          "name": "G3",
          "ticks": 1152,
          "time": 7.5789480000000005,
          "velocity": 0.7716535433070866
        },
        {
          "duration": 2.5263159999999996,
          "durationTicks": 384,
          "midi": 47,
          "name": "B2",
          "ticks": 1152,
          "time": 7.5789480000000005,
          "velocity": 0.7716535433070866
        },
        {
          "duration": 2.5263159999999996,
          "durationTicks": 384,
          "midi": 48,
          "name": "C3",
          "ticks": 1536,
          "time": 10.105264,
          "velocity": 0.7716535433070866
        },
        {
          "duration": 0.31578950000000106,
          "durationTicks": 48,
          "midi": 50,
          "name": "D3",
          "ticks": 1584,
          "time": 10.4210535,
          "velocity": 0.7716535433070866
        },
        {
          "duration": 0.3157894999999993,
          "durationTicks": 48,
          "midi": 51,
          "name": "D#3",
          "ticks": 1632,
          "time": 10.736843,
          "velocity": 0.7716535433070866
        },
        {
          "duration": 1.5789475,
          "durationTicks": 240,
          "midi": 55,
          "name": "G3",
          "ticks": 1680,
          "time": 11.0526325,
          "velocity": 0.7716535433070866
        },
        {
          "duration": 2.5263160000000013,
          "durationTicks": 384,
          "midi": 48,
          "name": "C3",
          "ticks": 1920,
          "time": 12.63158,
          "velocity": 0.7716535433070866
        },
        {
          "duration": 0.3157894999999993,
          "durationTicks": 48,
          "midi": 50,
          "name": "D3",
          "ticks": 1968,
          "time": 12.9473695,
          "velocity": 0.7716535433070866
        },
        {
          "duration": 0.3157894999999993,
          "durationTicks": 48,
          "midi": 51,
          "name": "D#3",
          "ticks": 2016,
          "time": 13.263159,
          "velocity": 0.7716535433070866
        },
        {
          "duration": 1.5789475000000017,
          "durationTicks": 240,
          "midi": 55,
          "name": "G3",
          "ticks": 2064,
          "time": 13.5789485,
          "velocity": 0.7716535433070866
        },
        {
          "duration": 2.526315999999998,
          "durationTicks": 384,
          "midi": 56,
          "name": "G#3",
          "ticks": 2304,
          "time": 15.157896000000001,
          "velocity": 0.7716535433070866
        },
        {
          "duration": 2.526315999999998,
          "durationTicks": 384,
          "midi": 48,
          "name": "C3",
          "ticks": 2304,
          "time": 15.157896000000001,
          "velocity": 0.7716535433070866
        },
        {
          "duration": 2.5263160000000013,
          "durationTicks": 384,
          "midi": 55,
          "name": "G3",
          "ticks": 2688,
          "time": 17.684212,
          "velocity": 0.7716535433070866
        },
        {
          "duration": 2.5263160000000013,
          "durationTicks": 384,
          "midi": 47,
          "name": "B2",
          "ticks": 2688,
          "time": 17.684212,
          "velocity": 0.7716535433070866
        },
        {
          "duration": 2.5263160000000013,
          "durationTicks": 384,
          "midi": 48,
          "name": "C3",
          "ticks": 3072,
          "time": 20.210528,
          "velocity": 0.7716535433070866
        },
        {
          "duration": 0.3157894999999975,
          "durationTicks": 48,
          "midi": 50,
          "name": "D3",
          "ticks": 3120,
          "time": 20.5263175,
          "velocity": 0.7716535433070866
        },
        {
          "duration": 0.31578950000000106,
          "durationTicks": 48,
          "midi": 51,
          "name": "D#3",
          "ticks": 3168,
          "time": 20.842107,
          "velocity": 0.7716535433070866
        },
        {
          "duration": 1.5789475000000017,
          "durationTicks": 240,
          "midi": 55,
          "name": "G3",
          "ticks": 3216,
          "time": 21.1578965,
          "velocity": 0.7716535433070866
        },
        {
          "duration": 2.526315999999998,
          "durationTicks": 384,
          "midi": 48,
          "name": "C3",
          "ticks": 3456,
          "time": 22.736844,
          "velocity": 0.7716535433070866
        },
        {
          "duration": 0.31578950000000106,
          "durationTicks": 48,
          "midi": 50,
          "name": "D3",
          "ticks": 3504,
          "time": 23.0526335,
          "velocity": 0.7716535433070866
        },
        {
          "duration": 0.31578950000000106,
          "durationTicks": 48,
          "midi": 51,
          "name": "D#3",
          "ticks": 3552,
          "time": 23.368423,
          "velocity": 0.7716535433070866
        },
        {
          "duration": 1.5789474999999982,
          "durationTicks": 240,
          "midi": 55,
          "name": "G3",
          "ticks": 3600,
          "time": 23.6842125,
          "velocity": 0.7716535433070866
        },
        {
          "duration": 2.5263160000000013,
          "durationTicks": 384,
          "midi": 60,
          "name": "C4",
          "ticks": 3840,
          "time": 25.26316,
          "velocity": 0.7716535433070866
        },
        {
          "duration": 2.5263160000000013,
          "durationTicks": 384,
          "midi": 56,
          "name": "G#3",
          "ticks": 3840,
          "time": 25.26316,
          "velocity": 0.7716535433070866
        },
        {
          "duration": 2.5263160000000013,
          "durationTicks": 384,
          "midi": 59,
          "name": "B3",
          "ticks": 4224,
          "time": 27.789476,
          "velocity": 0.7716535433070866
        },
        {
          "duration": 2.5263160000000013,
          "durationTicks": 384,
          "midi": 55,
          "name": "G3",
          "ticks": 4224,
          "time": 27.789476,
          "velocity": 0.7716535433070866
        },
        {
          "duration": 2.5263160000000013,
          "durationTicks": 384,
          "midi": 48,
          "name": "C3",
          "ticks": 4608,
          "time": 30.315792000000002,
          "velocity": 0.7716535433070866
        },
        {
          "duration": 0.31578950000000106,
          "durationTicks": 48,
          "midi": 50,
          "name": "D3",
          "ticks": 4656,
          "time": 30.6315815,
          "velocity": 0.7716535433070866
        },
        {
          "duration": 0.31578950000000106,
          "durationTicks": 48,
          "midi": 51,
          "name": "D#3",
          "ticks": 4704,
          "time": 30.947371,
          "velocity": 0.7716535433070866
        },
        {
          "duration": 1.5789475000000017,
          "durationTicks": 240,
          "midi": 55,
          "name": "G3",
          "ticks": 4752,
          "time": 31.2631605,
          "velocity": 0.7716535433070866
        },
        {
          "duration": 2.5263159999999942,
          "durationTicks": 384,
          "midi": 48,
          "name": "C3",
          "ticks": 4992,
          "time": 32.842108,
          "velocity": 0.7716535433070866
        },
        {
          "duration": 0.31578950000000106,
          "durationTicks": 48,
          "midi": 50,
          "name": "D3",
          "ticks": 5040,
          "time": 33.1578975,
          "velocity": 0.7716535433070866
        },
        {
          "duration": 0.31578950000000106,
          "durationTicks": 48,
          "midi": 51,
          "name": "D#3",
          "ticks": 5088,
          "time": 33.473687,
          "velocity": 0.7716535433070866
        },
        {
          "duration": 1.5789474999999982,
          "durationTicks": 240,
          "midi": 55,
          "name": "G3",
          "ticks": 5136,
          "time": 33.7894765,
          "velocity": 0.7716535433070866
        },
        {
          "duration": 2.5263160000000013,
          "durationTicks": 384,
          "midi": 60,
          "name": "C4",
          "ticks": 5376,
          "time": 35.368424,
          "velocity": 0.7716535433070866
        },
        {
          "duration": 2.5263160000000013,
          "durationTicks": 384,
          "midi": 56,
          "name": "G#3",
          "ticks": 5376,
          "time": 35.368424,
          "velocity": 0.7716535433070866
        },
        {
          "duration": 2.519737052083336,
          "durationTicks": 383,
          "midi": 59,
          "name": "B3",
          "ticks": 5760,
          "time": 37.89474,
          "velocity": 0.7716535433070866
        },
        {
          "duration": 2.519737052083336,
          "durationTicks": 383,
          "midi": 55,
          "name": "G3",
          "ticks": 5760,
          "time": 37.89474,
          "velocity": 0.7716535433070866
        }
      ],
      "endOfTrackTicks": 6145
    },
    {
      "channel": 3,
      "controlChanges": {
        "6": [
          {
            "number": 6,
            "ticks": 0,
            "time": 0,
            "value": 0.09448818897637795
          },
          {
            "number": 6,
            "ticks": 0,
            "time": 0,
            "value": 0.09448818897637795
          },
          {
            "number": 6,
            "ticks": 0,
            "time": 0,
            "value": 0.09448818897637795
          },
          {
            "number": 6,
            "ticks": 6144,
            "time": 40.421056,
            "value": 0.09448818897637795
          },
          {
            "number": 6,
            "ticks": 6145,
            "time": 40.42763494791667,
            "value": 0.09448818897637795
          }
        ],
        "7": [
          {
            "number": 7,
            "ticks": 0,
            "time": 0,
            "value": 0.7874015748031497
          },
          {
            "number": 7,
            "ticks": 0,
            "time": 0,
            "value": 0.7874015748031497
          },
          {
            "number": 7,
            "ticks": 0,
            "time": 0,
            "value": 0.7874015748031497
          },
          {
            "number": 7,
            "ticks": 0,
            "time": 0,
            "value": 0.7874015748031497
          },
          {
            "number": 7,
            "ticks": 6144,
            "time": 40.421056,
            "value": 0.7874015748031497
          },
          {
            "number": 7,
            "ticks": 6145,
            "time": 40.42763494791667,
            "value": 0.7874015748031497
          }
        ],
        "10": [
          {
            "number": 10,
            "ticks": 0,
            "time": 0,
            "value": 0.5039370078740157
          },
          {
            "number": 10,
            "ticks": 0,
            "time": 0,
            "value": 0.5039370078740157
          },
          {
            "number": 10,
            "ticks": 0,
            "time": 0,
            "value": 0.5039370078740157
          },
          {
            "number": 10,
            "ticks": 0,
            "time": 0,
            "value": 0.5039370078740157
          },
          {
            "number": 10,
            "ticks": 6144,
            "time": 40.421056,
            "value": 0.5039370078740157
          },
          {
            "number": 10,
            "ticks": 6145,
            "time": 40.42763494791667,
            "value": 0.5039370078740157
          }
        ],
        "100": [
          {
            "number": 100,
            "ticks": 0,
            "time": 0,
            "value": 0
          },
          {
            "number": 100,
            "ticks": 0,
            "time": 0,
            "value": 0
          },
          {
            "number": 100,
            "ticks": 0,
            "time": 0,
            "value": 0
          },
          {
            "number": 100,
            "ticks": 6144,
            "time": 40.421056,
            "value": 0
          },
          {
            "number": 100,
            "ticks": 6145,
            "time": 40.42763494791667,
            "value": 0
          }
        ],
        "101": [
          {
            "number": 101,
            "ticks": 0,
            "time": 0,
            "value": 0
          },
          {
            "number": 101,
            "ticks": 0,
            "time": 0,
            "value": 0
          },
          {
            "number": 101,
            "ticks": 0,
            "time": 0,
            "value": 0
          },
          {
            "number": 101,
            "ticks": 6144,
            "time": 40.421056,
            "value": 0
          },
          {
            "number": 101,
            "ticks": 6145,
            "time": 40.42763494791667,
            "value": 0
          }
        ]
      },
      "pitchBends": [
        {
          "ticks": 0,
          "time": 0,
          "value": 0
        },
        {
          "ticks": 0,
          "time": 0,
          "value": 0
        },
        {
          "ticks": 0,
          "time": 0,
          "value": 0
        },
        {
          "ticks": 0,
          "time": 0,
          "value": 0
        },
        {
          "ticks": 6144,
          "time": 40.421056,
          "value": 0
        },
        {
          "ticks": 6145,
          "time": 40.42763494791667,
          "value": 0
        }
      ],
      "instrument": {
        "family": "piano",
        "name": "acoustic grand piano",
        "number": 0
      },
      "name": "Channel #1",
      "notes": [
        {
          "duration": 0.3157895,
          "durationTicks": 48,
          "midi": 60,
          "name": "C4",
          "ticks": 0,
          "time": 0,
          "velocity": 0.7874015748031497
        },
        {
          "duration": 0.3157895,
          "durationTicks": 48,
          "midi": 48,
          "name": "C3",
          "ticks": 0,
          "time": 0,
          "velocity": 0.7874015748031497
        },
        {
          "duration": 0.31578950000000006,
          "durationTicks": 48,
          "midi": 60,
          "name": "C4",
          "ticks": 96,
          "time": 0.631579,
          "velocity": 0.7952755905511811
        },
        {
          "duration": 0.31578950000000006,
          "durationTicks": 48,
          "midi": 48,
          "name": "C3",
          "ticks": 96,
          "time": 0.631579,
          "velocity": 0.7952755905511811
        },
        {
          "duration": 0.31578949999999995,
          "durationTicks": 48,
          "midi": 60,
          "name": "C4",
          "ticks": 192,
          "time": 1.263158,
          "velocity": 0.7952755905511811
        },
        {
          "duration": 0.31578949999999995,
          "durationTicks": 48,
          "midi": 48,
          "name": "C3",
          "ticks": 192,
          "time": 1.263158,
          "velocity": 0.7952755905511811
        },
        {
          "duration": 0.31578950000000017,
          "durationTicks": 48,
          "midi": 59,
          "name": "B3",
          "ticks": 336,
          "time": 2.2105265,
          "velocity": 0.7952755905511811
        },
        {
          "duration": 0.31578950000000017,
          "durationTicks": 48,
          "midi": 47,
          "name": "B2",
          "ticks": 336,
          "time": 2.2105265,
          "velocity": 0.7952755905511811
        },
        {
          "duration": 0.31578950000000017,
          "durationTicks": 48,
          "midi": 60,
          "name": "C4",
          "ticks": 384,
          "time": 2.526316,
          "velocity": 0.7952755905511811
        },
        {
          "duration": 0.31578950000000017,
          "durationTicks": 48,
          "midi": 48,
          "name": "C3",
          "ticks": 384,
          "time": 2.526316,
          "velocity": 0.7952755905511811
        },
        {
          "duration": 0.31578950000000017,
          "durationTicks": 48,
          "midi": 60,
          "name": "C4",
          "ticks": 480,
          "time": 3.157895,
          "velocity": 0.7952755905511811
        },
        {
          "duration": 0.31578950000000017,
          "durationTicks": 48,
          "midi": 48,
          "name": "C3",
          "ticks": 480,
          "time": 3.157895,
          "velocity": 0.7952755905511811
        },
        {
          "duration": 0.31578950000000017,
          "durationTicks": 48,
          "midi": 60,
          "name": "C4",
          "ticks": 576,
          "time": 3.7894740000000002,
          "velocity": 0.7952755905511811
        },
        {
          "duration": 0.31578950000000017,
          "durationTicks": 48,
          "midi": 48,
          "name": "C3",
          "ticks": 576,
          "time": 3.7894740000000002,
          "velocity": 0.7952755905511811
        },
        {
          "duration": 0.31578950000000017,
          "durationTicks": 48,
          "midi": 60,
          "name": "C4",
          "ticks": 672,
          "time": 4.421053,
          "velocity": 0.7952755905511811
        },
        {
          "duration": 0.31578950000000017,
          "durationTicks": 48,
          "midi": 48,
          "name": "C3",
          "ticks": 672,
          "time": 4.421053,
          "velocity": 0.7952755905511811
        },
        {
          "duration": 0.31578950000000017,
          "durationTicks": 48,
          "midi": 68,
          "name": "G#4",
          "ticks": 768,
          "time": 5.052632,
          "velocity": 0.7952755905511811
        },
        {
          "duration": 0.31578950000000017,
          "durationTicks": 48,
          "midi": 56,
          "name": "G#3",
          "ticks": 768,
          "time": 5.052632,
          "velocity": 0.7952755905511811
        },
        {
          "duration": 0.31578950000000017,
          "durationTicks": 48,
          "midi": 67,
          "name": "G4",
          "ticks": 816,
          "time": 5.3684215,
          "velocity": 0.7952755905511811
        },
        {
          "duration": 0.31578950000000017,
          "durationTicks": 48,
          "midi": 55,
          "name": "G3",
          "ticks": 816,
          "time": 5.3684215,
          "velocity": 0.7952755905511811
        },
        {
          "duration": 0.3157894999999993,
          "durationTicks": 48,
          "midi": 65,
          "name": "F4",
          "ticks": 864,
          "time": 5.684211,
          "velocity": 0.7952755905511811
        },
        {
          "duration": 0.3157894999999993,
          "durationTicks": 48,
          "midi": 53,
          "name": "F3",
          "ticks": 864,
          "time": 5.684211,
          "velocity": 0.7952755905511811
        },
        {
          "duration": 0.31578950000000017,
          "durationTicks": 48,
          "midi": 63,
          "name": "D#4",
          "ticks": 912,
          "time": 6.0000005,
          "velocity": 0.7952755905511811
        },
        {
          "duration": 0.31578950000000017,
          "durationTicks": 48,
          "midi": 51,
          "name": "D#3",
          "ticks": 912,
          "time": 6.0000005,
          "velocity": 0.7952755905511811
        },
        {
          "duration": 0.31578950000000017,
          "durationTicks": 48,
          "midi": 68,
          "name": "G#4",
          "ticks": 960,
          "time": 6.31579,
          "velocity": 0.7952755905511811
        },
        {
          "duration": 0.31578950000000017,
          "durationTicks": 48,
          "midi": 56,
          "name": "G#3",
          "ticks": 960,
          "time": 6.31579,
          "velocity": 0.7952755905511811
        },
        {
          "duration": 0.31578950000000017,
          "durationTicks": 48,
          "midi": 67,
          "name": "G4",
          "ticks": 1008,
          "time": 6.6315795,
          "velocity": 0.7952755905511811
        },
        {
          "duration": 0.31578950000000017,
          "durationTicks": 48,
          "midi": 55,
          "name": "G3",
          "ticks": 1008,
          "time": 6.6315795,
          "velocity": 0.7952755905511811
        },
        {
          "duration": 0.31578950000000017,
          "durationTicks": 48,
          "midi": 65,
          "name": "F4",
          "ticks": 1056,
          "time": 6.947369,
          "velocity": 0.7952755905511811
        },
        {
          "duration": 0.31578950000000017,
          "durationTicks": 48,
          "midi": 53,
          "name": "F3",
          "ticks": 1056,
          "time": 6.947369,
          "velocity": 0.7952755905511811
        },
        {
          "duration": 0.31578950000000017,
          "durationTicks": 48,
          "midi": 63,
          "name": "D#4",
          "ticks": 1104,
          "time": 7.2631585,
          "velocity": 0.7952755905511811
        },
        {
          "duration": 0.31578950000000017,
          "durationTicks": 48,
          "midi": 51,
          "name": "D#3",
          "ticks": 1104,
          "time": 7.2631585,
          "velocity": 0.7952755905511811
        },
        {
          "duration": 0.3157894999999993,
          "durationTicks": 48,
          "midi": 67,
          "name": "G4",
          "ticks": 1152,
          "time": 7.5789480000000005,
          "velocity": 0.7952755905511811
        },
        {
          "duration": 0.3157894999999993,
          "durationTicks": 48,
          "midi": 55,
          "name": "G3",
          "ticks": 1152,
          "time": 7.5789480000000005,
          "velocity": 0.7952755905511811
        },
        {
          "duration": 0.31578950000000106,
          "durationTicks": 48,
          "midi": 65,
          "name": "F4",
          "ticks": 1200,
          "time": 7.8947375,
          "velocity": 0.7952755905511811
        },
        {
          "duration": 0.31578950000000106,
          "durationTicks": 48,
          "midi": 53,
          "name": "F3",
          "ticks": 1200,
          "time": 7.8947375,
          "velocity": 0.7952755905511811
        },
        {
          "duration": 0.3157894999999993,
          "durationTicks": 48,
          "midi": 63,
          "name": "D#4",
          "ticks": 1248,
          "time": 8.210527,
          "velocity": 0.7952755905511811
        },
        {
          "duration": 0.3157894999999993,
          "durationTicks": 48,
          "midi": 51,
          "name": "D#3",
          "ticks": 1248,
          "time": 8.210527,
          "velocity": 0.7952755905511811
        },
        {
          "duration": 0.3157894999999993,
          "durationTicks": 48,
          "midi": 59,
          "name": "B3",
          "ticks": 1296,
          "time": 8.5263165,
          "velocity": 0.7952755905511811
        },
        {
          "duration": 0.3157894999999993,
          "durationTicks": 48,
          "midi": 47,
          "name": "B2",
          "ticks": 1296,
          "time": 8.5263165,
          "velocity": 0.7952755905511811
        },
        {
          "duration": 0.31578950000000106,
          "durationTicks": 48,
          "midi": 67,
          "name": "G4",
          "ticks": 1344,
          "time": 8.842106,
          "velocity": 0.7952755905511811
        },
        {
          "duration": 0.31578950000000106,
          "durationTicks": 48,
          "midi": 55,
          "name": "G3",
          "ticks": 1344,
          "time": 8.842106,
          "velocity": 0.7952755905511811
        },
        {
          "duration": 0.3157894999999993,
          "durationTicks": 48,
          "midi": 65,
          "name": "F4",
          "ticks": 1392,
          "time": 9.1578955,
          "velocity": 0.7874015748031497
        },
        {
          "duration": 0.3157894999999993,
          "durationTicks": 48,
          "midi": 53,
          "name": "F3",
          "ticks": 1392,
          "time": 9.1578955,
          "velocity": 0.7874015748031497
        },
        {
          "duration": 0.31578950000000106,
          "durationTicks": 48,
          "midi": 63,
          "name": "D#4",
          "ticks": 1440,
          "time": 9.473685,
          "velocity": 0.7874015748031497
        },
        {
          "duration": 0.31578950000000106,
          "durationTicks": 48,
          "midi": 51,
          "name": "D#3",
          "ticks": 1440,
          "time": 9.473685,
          "velocity": 0.7874015748031497
        },
        {
          "duration": 0.3157894999999993,
          "durationTicks": 48,
          "midi": 59,
          "name": "B3",
          "ticks": 1488,
          "time": 9.7894745,
          "velocity": 0.7874015748031497
        },
        {
          "duration": 0.3157894999999993,
          "durationTicks": 48,
          "midi": 47,
          "name": "B2",
          "ticks": 1488,
          "time": 9.7894745,
          "velocity": 0.7874015748031497
        },
        {
          "duration": 0.3157894999999993,
          "durationTicks": 48,
          "midi": 60,
          "name": "C4",
          "ticks": 1536,
          "time": 10.105264,
          "velocity": 0.7874015748031497
        },
        {
          "duration": 0.3157894999999993,
          "durationTicks": 48,
          "midi": 48,
          "name": "C3",
          "ticks": 1536,
          "time": 10.105264,
          "velocity": 0.7874015748031497
        },
        {
          "duration": 0.3157894999999993,
          "durationTicks": 48,
          "midi": 60,
          "name": "C4",
          "ticks": 1632,
          "time": 10.736843,
          "velocity": 0.7952755905511811
        },
        {
          "duration": 0.3157894999999993,
          "durationTicks": 48,
          "midi": 48,
          "name": "C3",
          "ticks": 1632,
          "time": 10.736843,
          "velocity": 0.7952755905511811
        },
        {
          "duration": 0.3157894999999993,
          "durationTicks": 48,
          "midi": 60,
          "name": "C4",
          "ticks": 1728,
          "time": 11.368422,
          "velocity": 0.7952755905511811
        },
        {
          "duration": 0.3157894999999993,
          "durationTicks": 48,
          "midi": 48,
          "name": "C3",
          "ticks": 1728,
          "time": 11.368422,
          "velocity": 0.7952755905511811
        },
        {
          "duration": 0.3157894999999993,
          "durationTicks": 48,
          "midi": 59,
          "name": "B3",
          "ticks": 1872,
          "time": 12.3157905,
          "velocity": 0.7952755905511811
        },
        {
          "duration": 0.3157894999999993,
          "durationTicks": 48,
          "midi": 47,
          "name": "B2",
          "ticks": 1872,
          "time": 12.3157905,
          "velocity": 0.7952755905511811
        },
        {
          "duration": 0.31578950000000106,
          "durationTicks": 48,
          "midi": 60,
          "name": "C4",
          "ticks": 1920,
          "time": 12.63158,
          "velocity": 0.7952755905511811
        },
        {
          "duration": 0.31578950000000106,
          "durationTicks": 48,
          "midi": 48,
          "name": "C3",
          "ticks": 1920,
          "time": 12.63158,
          "velocity": 0.7952755905511811
        },
        {
          "duration": 0.3157894999999993,
          "durationTicks": 48,
          "midi": 60,
          "name": "C4",
          "ticks": 2016,
          "time": 13.263159,
          "velocity": 0.7952755905511811
        },
        {
          "duration": 0.3157894999999993,
          "durationTicks": 48,
          "midi": 48,
          "name": "C3",
          "ticks": 2016,
          "time": 13.263159,
          "velocity": 0.7952755905511811
        },
        {
          "duration": 0.3157894999999993,
          "durationTicks": 48,
          "midi": 60,
          "name": "C4",
          "ticks": 2112,
          "time": 13.894738,
          "velocity": 0.7952755905511811
        },
        {
          "duration": 0.3157894999999993,
          "durationTicks": 48,
          "midi": 48,
          "name": "C3",
          "ticks": 2112,
          "time": 13.894738,
          "velocity": 0.7952755905511811
        },
        {
          "duration": 0.3157894999999993,
          "durationTicks": 48,
          "midi": 60,
          "name": "C4",
          "ticks": 2208,
          "time": 14.526317,
          "velocity": 0.7952755905511811
        },
        {
          "duration": 0.3157894999999993,
          "durationTicks": 48,
          "midi": 48,
          "name": "C3",
          "ticks": 2208,
          "time": 14.526317,
          "velocity": 0.7952755905511811
        },
        {
          "duration": 0.3157894999999993,
          "durationTicks": 48,
          "midi": 68,
          "name": "G#4",
          "ticks": 2304,
          "time": 15.157896000000001,
          "velocity": 0.7952755905511811
        },
        {
          "duration": 0.3157894999999993,
          "durationTicks": 48,
          "midi": 56,
          "name": "G#3",
          "ticks": 2304,
          "time": 15.157896000000001,
          "velocity": 0.7952755905511811
        },
        {
          "duration": 0.3157894999999993,
          "durationTicks": 48,
          "midi": 67,
          "name": "G4",
          "ticks": 2352,
          "time": 15.4736855,
          "velocity": 0.7952755905511811
        },
        {
          "duration": 0.3157894999999993,
          "durationTicks": 48,
          "midi": 55,
          "name": "G3",
          "ticks": 2352,
          "time": 15.4736855,
          "velocity": 0.7952755905511811
        },
        {
          "duration": 0.31578950000000106,
          "durationTicks": 48,
          "midi": 65,
          "name": "F4",
          "ticks": 2400,
          "time": 15.789475,
          "velocity": 0.7952755905511811
        },
        {
          "duration": 0.31578950000000106,
          "durationTicks": 48,
          "midi": 53,
          "name": "F3",
          "ticks": 2400,
          "time": 15.789475,
          "velocity": 0.7952755905511811
        },
        {
          "duration": 0.31578950000000106,
          "durationTicks": 48,
          "midi": 63,
          "name": "D#4",
          "ticks": 2448,
          "time": 16.1052645,
          "velocity": 0.7952755905511811
        },
        {
          "duration": 0.31578950000000106,
          "durationTicks": 48,
          "midi": 51,
          "name": "D#3",
          "ticks": 2448,
          "time": 16.1052645,
          "velocity": 0.7952755905511811
        },
        {
          "duration": 0.3157894999999975,
          "durationTicks": 48,
          "midi": 68,
          "name": "G#4",
          "ticks": 2496,
          "time": 16.421054,
          "velocity": 0.7952755905511811
        },
        {
          "duration": 0.3157894999999975,
          "durationTicks": 48,
          "midi": 56,
          "name": "G#3",
          "ticks": 2496,
          "time": 16.421054,
          "velocity": 0.7952755905511811
        },
        {
          "duration": 0.31578950000000106,
          "durationTicks": 48,
          "midi": 67,
          "name": "G4",
          "ticks": 2544,
          "time": 16.7368435,
          "velocity": 0.7952755905511811
        },
        {
          "duration": 0.31578950000000106,
          "durationTicks": 48,
          "midi": 55,
          "name": "G3",
          "ticks": 2544,
          "time": 16.7368435,
          "velocity": 0.7952755905511811
        },
        {
          "duration": 0.31578950000000106,
          "durationTicks": 48,
          "midi": 65,
          "name": "F4",
          "ticks": 2592,
          "time": 17.052633,
          "velocity": 0.7952755905511811
        },
        {
          "duration": 0.31578950000000106,
          "durationTicks": 48,
          "midi": 53,
          "name": "F3",
          "ticks": 2592,
          "time": 17.052633,
          "velocity": 0.7952755905511811
        },
        {
          "duration": 0.3157894999999975,
          "durationTicks": 48,
          "midi": 63,
          "name": "D#4",
          "ticks": 2640,
          "time": 17.3684225,
          "velocity": 0.7952755905511811
        },
        {
          "duration": 0.3157894999999975,
          "durationTicks": 48,
          "midi": 51,
          "name": "D#3",
          "ticks": 2640,
          "time": 17.3684225,
          "velocity": 0.7952755905511811
        },
        {
          "duration": 0.31578950000000106,
          "durationTicks": 48,
          "midi": 67,
          "name": "G4",
          "ticks": 2688,
          "time": 17.684212,
          "velocity": 0.7952755905511811
        },
        {
          "duration": 0.31578950000000106,
          "durationTicks": 48,
          "midi": 55,
          "name": "G3",
          "ticks": 2688,
          "time": 17.684212,
          "velocity": 0.7952755905511811
        },
        {
          "duration": 0.31578950000000106,
          "durationTicks": 48,
          "midi": 65,
          "name": "F4",
          "ticks": 2736,
          "time": 18.0000015,
          "velocity": 0.7952755905511811
        },
        {
          "duration": 0.31578950000000106,
          "durationTicks": 48,
          "midi": 53,
          "name": "F3",
          "ticks": 2736,
          "time": 18.0000015,
          "velocity": 0.7952755905511811
        },
        {
          "duration": 0.3157894999999975,
          "durationTicks": 48,
          "midi": 63,
          "name": "D#4",
          "ticks": 2784,
          "time": 18.315791,
          "velocity": 0.7952755905511811
        },
        {
          "duration": 0.3157894999999975,
          "durationTicks": 48,
          "midi": 51,
          "name": "D#3",
          "ticks": 2784,
          "time": 18.315791,
          "velocity": 0.7952755905511811
        },
        {
          "duration": 0.31578950000000106,
          "durationTicks": 48,
          "midi": 59,
          "name": "B3",
          "ticks": 2832,
          "time": 18.6315805,
          "velocity": 0.7952755905511811
        },
        {
          "duration": 0.31578950000000106,
          "durationTicks": 48,
          "midi": 47,
          "name": "B2",
          "ticks": 2832,
          "time": 18.6315805,
          "velocity": 0.7952755905511811
        },
        {
          "duration": 0.31578950000000106,
          "durationTicks": 48,
          "midi": 67,
          "name": "G4",
          "ticks": 2880,
          "time": 18.94737,
          "velocity": 0.7952755905511811
        },
        {
          "duration": 0.31578950000000106,
          "durationTicks": 48,
          "midi": 55,
          "name": "G3",
          "ticks": 2880,
          "time": 18.94737,
          "velocity": 0.7952755905511811
        },
        {
          "duration": 0.31578950000000106,
          "durationTicks": 48,
          "midi": 65,
          "name": "F4",
          "ticks": 2928,
          "time": 19.2631595,
          "velocity": 0.7874015748031497
        },
        {
          "duration": 0.31578950000000106,
          "durationTicks": 48,
          "midi": 53,
          "name": "F3",
          "ticks": 2928,
          "time": 19.2631595,
          "velocity": 0.7874015748031497
        },
        {
          "duration": 0.3157894999999975,
          "durationTicks": 48,
          "midi": 63,
          "name": "D#4",
          "ticks": 2976,
          "time": 19.578949,
          "velocity": 0.7874015748031497
        },
        {
          "duration": 0.3157894999999975,
          "durationTicks": 48,
          "midi": 51,
          "name": "D#3",
          "ticks": 2976,
          "time": 19.578949,
          "velocity": 0.7874015748031497
        },
        {
          "duration": 0.31578950000000106,
          "durationTicks": 48,
          "midi": 59,
          "name": "B3",
          "ticks": 3024,
          "time": 19.8947385,
          "velocity": 0.7874015748031497
        },
        {
          "duration": 0.31578950000000106,
          "durationTicks": 48,
          "midi": 47,
          "name": "B2",
          "ticks": 3024,
          "time": 19.8947385,
          "velocity": 0.7874015748031497
        },
        {
          "duration": 0.31578950000000106,
          "durationTicks": 48,
          "midi": 60,
          "name": "C4",
          "ticks": 3072,
          "time": 20.210528,
          "velocity": 0.7874015748031497
        },
        {
          "duration": 0.31578950000000106,
          "durationTicks": 48,
          "midi": 48,
          "name": "C3",
          "ticks": 3072,
          "time": 20.210528,
          "velocity": 0.7874015748031497
        },
        {
          "duration": 0.31578950000000106,
          "durationTicks": 48,
          "midi": 60,
          "name": "C4",
          "ticks": 3168,
          "time": 20.842107,
          "velocity": 0.7952755905511811
        },
        {
          "duration": 0.31578950000000106,
          "durationTicks": 48,
          "midi": 48,
          "name": "C3",
          "ticks": 3168,
          "time": 20.842107,
          "velocity": 0.7952755905511811
        },
        {
          "duration": 0.31578950000000106,
          "durationTicks": 48,
          "midi": 60,
          "name": "C4",
          "ticks": 3264,
          "time": 21.473686,
          "velocity": 0.7952755905511811
        },
        {
          "duration": 0.31578950000000106,
          "durationTicks": 48,
          "midi": 48,
          "name": "C3",
          "ticks": 3264,
          "time": 21.473686,
          "velocity": 0.7952755905511811
        },
        {
          "duration": 0.31578950000000106,
          "durationTicks": 48,
          "midi": 59,
          "name": "B3",
          "ticks": 3408,
          "time": 22.4210545,
          "velocity": 0.7952755905511811
        },
        {
          "duration": 0.31578950000000106,
          "durationTicks": 48,
          "midi": 47,
          "name": "B2",
          "ticks": 3408,
          "time": 22.4210545,
          "velocity": 0.7952755905511811
        },
        {
          "duration": 0.3157894999999975,
          "durationTicks": 48,
          "midi": 60,
          "name": "C4",
          "ticks": 3456,
          "time": 22.736844,
          "velocity": 0.7952755905511811
        },
        {
          "duration": 0.3157894999999975,
          "durationTicks": 48,
          "midi": 48,
          "name": "C3",
          "ticks": 3456,
          "time": 22.736844,
          "velocity": 0.7952755905511811
        },
        {
          "duration": 0.31578950000000106,
          "durationTicks": 48,
          "midi": 60,
          "name": "C4",
          "ticks": 3552,
          "time": 23.368423,
          "velocity": 0.7952755905511811
        },
        {
          "duration": 0.31578950000000106,
          "durationTicks": 48,
          "midi": 48,
          "name": "C3",
          "ticks": 3552,
          "time": 23.368423,
          "velocity": 0.7952755905511811
        },
        {
          "duration": 0.31578950000000106,
          "durationTicks": 48,
          "midi": 60,
          "name": "C4",
          "ticks": 3648,
          "time": 24.000002,
          "velocity": 0.7952755905511811
        },
        {
          "duration": 0.31578950000000106,
          "durationTicks": 48,
          "midi": 48,
          "name": "C3",
          "ticks": 3648,
          "time": 24.000002,
          "velocity": 0.7952755905511811
        },
        {
          "duration": 0.31578950000000106,
          "durationTicks": 48,
          "midi": 60,
          "name": "C4",
          "ticks": 3744,
          "time": 24.631581,
          "velocity": 0.7952755905511811
        },
        {
          "duration": 0.31578950000000106,
          "durationTicks": 48,
          "midi": 48,
          "name": "C3",
          "ticks": 3744,
          "time": 24.631581,
          "velocity": 0.7952755905511811
        },
        {
          "duration": 0.31578950000000106,
          "durationTicks": 48,
          "midi": 68,
          "name": "G#4",
          "ticks": 3840,
          "time": 25.26316,
          "velocity": 0.7952755905511811
        },
        {
          "duration": 0.31578950000000106,
          "durationTicks": 48,
          "midi": 56,
          "name": "G#3",
          "ticks": 3840,
          "time": 25.26316,
          "velocity": 0.7952755905511811
        },
        {
          "duration": 0.31578950000000106,
          "durationTicks": 48,
          "midi": 67,
          "name": "G4",
          "ticks": 3888,
          "time": 25.5789495,
          "velocity": 0.7952755905511811
        },
        {
          "duration": 0.31578950000000106,
          "durationTicks": 48,
          "midi": 55,
          "name": "G3",
          "ticks": 3888,
          "time": 25.5789495,
          "velocity": 0.7952755905511811
        },
        {
          "duration": 0.3157894999999975,
          "durationTicks": 48,
          "midi": 65,
          "name": "F4",
          "ticks": 3936,
          "time": 25.894739,
          "velocity": 0.7952755905511811
        },
        {
          "duration": 0.3157894999999975,
          "durationTicks": 48,
          "midi": 53,
          "name": "F3",
          "ticks": 3936,
          "time": 25.894739,
          "velocity": 0.7952755905511811
        },
        {
          "duration": 0.31578950000000106,
          "durationTicks": 48,
          "midi": 63,
          "name": "D#4",
          "ticks": 3984,
          "time": 26.2105285,
          "velocity": 0.7952755905511811
        },
        {
          "duration": 0.31578950000000106,
          "durationTicks": 48,
          "midi": 51,
          "name": "D#3",
          "ticks": 3984,
          "time": 26.2105285,
          "velocity": 0.7952755905511811
        },
        {
          "duration": 0.31578950000000106,
          "durationTicks": 48,
          "midi": 68,
          "name": "G#4",
          "ticks": 4032,
          "time": 26.526318,
          "velocity": 0.7952755905511811
        },
        {
          "duration": 0.31578950000000106,
          "durationTicks": 48,
          "midi": 56,
          "name": "G#3",
          "ticks": 4032,
          "time": 26.526318,
          "velocity": 0.7952755905511811
        },
        {
          "duration": 0.3157894999999975,
          "durationTicks": 48,
          "midi": 67,
          "name": "G4",
          "ticks": 4080,
          "time": 26.8421075,
          "velocity": 0.7952755905511811
        },
        {
          "duration": 0.3157894999999975,
          "durationTicks": 48,
          "midi": 55,
          "name": "G3",
          "ticks": 4080,
          "time": 26.8421075,
          "velocity": 0.7952755905511811
        },
        {
          "duration": 0.31578950000000106,
          "durationTicks": 48,
          "midi": 65,
          "name": "F4",
          "ticks": 4128,
          "time": 27.157897,
          "velocity": 0.7952755905511811
        },
        {
          "duration": 0.31578950000000106,
          "durationTicks": 48,
          "midi": 53,
          "name": "F3",
          "ticks": 4128,
          "time": 27.157897,
          "velocity": 0.7952755905511811
        },
        {
          "duration": 0.31578950000000106,
          "durationTicks": 48,
          "midi": 63,
          "name": "D#4",
          "ticks": 4176,
          "time": 27.4736865,
          "velocity": 0.7952755905511811
        },
        {
          "duration": 0.31578950000000106,
          "durationTicks": 48,
          "midi": 51,
          "name": "D#3",
          "ticks": 4176,
          "time": 27.4736865,
          "velocity": 0.7952755905511811
        },
        {
          "duration": 0.31578950000000106,
          "durationTicks": 48,
          "midi": 67,
          "name": "G4",
          "ticks": 4224,
          "time": 27.789476,
          "velocity": 0.7952755905511811
        },
        {
          "duration": 0.31578950000000106,
          "durationTicks": 48,
          "midi": 55,
          "name": "G3",
          "ticks": 4224,
          "time": 27.789476,
          "velocity": 0.7952755905511811
        },
        {
          "duration": 0.3157894999999975,
          "durationTicks": 48,
          "midi": 65,
          "name": "F4",
          "ticks": 4272,
          "time": 28.1052655,
          "velocity": 0.7952755905511811
        },
        {
          "duration": 0.3157894999999975,
          "durationTicks": 48,
          "midi": 53,
          "name": "F3",
          "ticks": 4272,
          "time": 28.1052655,
          "velocity": 0.7952755905511811
        },
        {
          "duration": 0.31578950000000106,
          "durationTicks": 48,
          "midi": 63,
          "name": "D#4",
          "ticks": 4320,
          "time": 28.421055,
          "velocity": 0.7952755905511811
        },
        {
          "duration": 0.31578950000000106,
          "durationTicks": 48,
          "midi": 51,
          "name": "D#3",
          "ticks": 4320,
          "time": 28.421055,
          "velocity": 0.7952755905511811
        },
        {
          "duration": 0.31578950000000106,
          "durationTicks": 48,
          "midi": 59,
          "name": "B3",
          "ticks": 4368,
          "time": 28.7368445,
          "velocity": 0.7952755905511811
        },
        {
          "duration": 0.31578950000000106,
          "durationTicks": 48,
          "midi": 47,
          "name": "B2",
          "ticks": 4368,
          "time": 28.7368445,
          "velocity": 0.7952755905511811
        },
        {
          "duration": 0.3157894999999975,
          "durationTicks": 48,
          "midi": 67,
          "name": "G4",
          "ticks": 4416,
          "time": 29.052634,
          "velocity": 0.7952755905511811
        },
        {
          "duration": 0.3157894999999975,
          "durationTicks": 48,
          "midi": 55,
          "name": "G3",
          "ticks": 4416,
          "time": 29.052634,
          "velocity": 0.7952755905511811
        },
        {
          "duration": 0.31578950000000106,
          "durationTicks": 48,
          "midi": 65,
          "name": "F4",
          "ticks": 4464,
          "time": 29.3684235,
          "velocity": 0.7874015748031497
        },
        {
          "duration": 0.31578950000000106,
          "durationTicks": 48,
          "midi": 53,
          "name": "F3",
          "ticks": 4464,
          "time": 29.3684235,
          "velocity": 0.7874015748031497
        },
        {
          "duration": 0.31578950000000106,
          "durationTicks": 48,
          "midi": 63,
          "name": "D#4",
          "ticks": 4512,
          "time": 29.684213,
          "velocity": 0.7874015748031497
        },
        {
          "duration": 0.31578950000000106,
          "durationTicks": 48,
          "midi": 51,
          "name": "D#3",
          "ticks": 4512,
          "time": 29.684213,
          "velocity": 0.7874015748031497
        },
        {
          "duration": 0.31578950000000106,
          "durationTicks": 48,
          "midi": 59,
          "name": "B3",
          "ticks": 4560,
          "time": 30.0000025,
          "velocity": 0.7874015748031497
        },
        {
          "duration": 0.31578950000000106,
          "durationTicks": 48,
          "midi": 47,
          "name": "B2",
          "ticks": 4560,
          "time": 30.0000025,
          "velocity": 0.7874015748031497
        },
        {
          "duration": 0.3157894999999975,
          "durationTicks": 48,
          "midi": 60,
          "name": "C4",
          "ticks": 4608,
          "time": 30.315792000000002,
          "velocity": 0.7874015748031497
        },
        {
          "duration": 0.3157894999999975,
          "durationTicks": 48,
          "midi": 48,
          "name": "C3",
          "ticks": 4608,
          "time": 30.315792000000002,
          "velocity": 0.7874015748031497
        },
        {
          "duration": 0.31578950000000106,
          "durationTicks": 48,
          "midi": 60,
          "name": "C4",
          "ticks": 4704,
          "time": 30.947371,
          "velocity": 0.7952755905511811
        },
        {
          "duration": 0.31578950000000106,
          "durationTicks": 48,
          "midi": 48,
          "name": "C3",
          "ticks": 4704,
          "time": 30.947371,
          "velocity": 0.7952755905511811
        },
        {
          "duration": 0.31578950000000106,
          "durationTicks": 48,
          "midi": 60,
          "name": "C4",
          "ticks": 4800,
          "time": 31.57895,
          "velocity": 0.7952755905511811
        },
        {
          "duration": 0.31578950000000106,
          "durationTicks": 48,
          "midi": 48,
          "name": "C3",
          "ticks": 4800,
          "time": 31.57895,
          "velocity": 0.7952755905511811
        },
        {
          "duration": 0.31578950000000106,
          "durationTicks": 48,
          "midi": 59,
          "name": "B3",
          "ticks": 4944,
          "time": 32.5263185,
          "velocity": 0.7952755905511811
        },
        {
          "duration": 0.31578950000000106,
          "durationTicks": 48,
          "midi": 47,
          "name": "B2",
          "ticks": 4944,
          "time": 32.5263185,
          "velocity": 0.7952755905511811
        },
        {
          "duration": 0.31578949999999395,
          "durationTicks": 48,
          "midi": 60,
          "name": "C4",
          "ticks": 4992,
          "time": 32.842108,
          "velocity": 0.7952755905511811
        },
        {
          "duration": 0.31578949999999395,
          "durationTicks": 48,
          "midi": 48,
          "name": "C3",
          "ticks": 4992,
          "time": 32.842108,
          "velocity": 0.7952755905511811
        },
        {
          "duration": 0.31578950000000106,
          "durationTicks": 48,
          "midi": 60,
          "name": "C4",
          "ticks": 5088,
          "time": 33.473687,
          "velocity": 0.7952755905511811
        },
        {
          "duration": 0.31578950000000106,
          "durationTicks": 48,
          "midi": 48,
          "name": "C3",
          "ticks": 5088,
          "time": 33.473687,
          "velocity": 0.7952755905511811
        },
        {
          "duration": 0.31578950000000106,
          "durationTicks": 48,
          "midi": 60,
          "name": "C4",
          "ticks": 5184,
          "time": 34.105266,
          "velocity": 0.7952755905511811
        },
        {
          "duration": 0.31578950000000106,
          "durationTicks": 48,
          "midi": 48,
          "name": "C3",
          "ticks": 5184,
          "time": 34.105266,
          "velocity": 0.7952755905511811
        },
        {
          "duration": 0.31578950000000106,
          "durationTicks": 48,
          "midi": 60,
          "name": "C4",
          "ticks": 5280,
          "time": 34.736845,
          "velocity": 0.7952755905511811
        },
        {
          "duration": 0.31578950000000106,
          "durationTicks": 48,
          "midi": 48,
          "name": "C3",
          "ticks": 5280,
          "time": 34.736845,
          "velocity": 0.7952755905511811
        },
        {
          "duration": 0.31578950000000106,
          "durationTicks": 48,
          "midi": 68,
          "name": "G#4",
          "ticks": 5376,
          "time": 35.368424,
          "velocity": 0.7952755905511811
        },
        {
          "duration": 0.31578950000000106,
          "durationTicks": 48,
          "midi": 56,
          "name": "G#3",
          "ticks": 5376,
          "time": 35.368424,
          "velocity": 0.7952755905511811
        },
        {
          "duration": 0.31578950000000106,
          "durationTicks": 48,
          "midi": 67,
          "name": "G4",
          "ticks": 5424,
          "time": 35.6842135,
          "velocity": 0.7952755905511811
        },
        {
          "duration": 0.31578950000000106,
          "durationTicks": 48,
          "midi": 55,
          "name": "G3",
          "ticks": 5424,
          "time": 35.6842135,
          "velocity": 0.7952755905511811
        },
        {
          "duration": 0.31578950000000106,
          "durationTicks": 48,
          "midi": 65,
          "name": "F4",
          "ticks": 5472,
          "time": 36.000003,
          "velocity": 0.7952755905511811
        },
        {
          "duration": 0.31578950000000106,
          "durationTicks": 48,
          "midi": 53,
          "name": "F3",
          "ticks": 5472,
          "time": 36.000003,
          "velocity": 0.7952755905511811
        },
        {
          "duration": 0.31578950000000106,
          "durationTicks": 48,
          "midi": 63,
          "name": "D#4",
          "ticks": 5520,
          "time": 36.3157925,
          "velocity": 0.7952755905511811
        },
        {
          "duration": 0.31578950000000106,
          "durationTicks": 48,
          "midi": 51,
          "name": "D#3",
          "ticks": 5520,
          "time": 36.3157925,
          "velocity": 0.7952755905511811
        },
        {
          "duration": 0.31578950000000106,
          "durationTicks": 48,
          "midi": 68,
          "name": "G#4",
          "ticks": 5568,
          "time": 36.631582,
          "velocity": 0.7952755905511811
        },
        {
          "duration": 0.31578950000000106,
          "durationTicks": 48,
          "midi": 56,
          "name": "G#3",
          "ticks": 5568,
          "time": 36.631582,
          "velocity": 0.7952755905511811
        },
        {
          "duration": 0.31578949999999395,
          "durationTicks": 48,
          "midi": 67,
          "name": "G4",
          "ticks": 5616,
          "time": 36.9473715,
          "velocity": 0.7952755905511811
        },
        {
          "duration": 0.31578949999999395,
          "durationTicks": 48,
          "midi": 55,
          "name": "G3",
          "ticks": 5616,
          "time": 36.9473715,
          "velocity": 0.7952755905511811
        },
        {
          "duration": 0.31578950000000106,
          "durationTicks": 48,
          "midi": 65,
          "name": "F4",
          "ticks": 5664,
          "time": 37.263161,
          "velocity": 0.7952755905511811
        },
        {
          "duration": 0.31578950000000106,
          "durationTicks": 48,
          "midi": 53,
          "name": "F3",
          "ticks": 5664,
          "time": 37.263161,
          "velocity": 0.7952755905511811
        },
        {
          "duration": 0.31578950000000106,
          "durationTicks": 48,
          "midi": 63,
          "name": "D#4",
          "ticks": 5712,
          "time": 37.5789505,
          "velocity": 0.7952755905511811
        },
        {
          "duration": 0.31578950000000106,
          "durationTicks": 48,
          "midi": 51,
          "name": "D#3",
          "ticks": 5712,
          "time": 37.5789505,
          "velocity": 0.7952755905511811
        },
        {
          "duration": 0.31578950000000106,
          "durationTicks": 48,
          "midi": 67,
          "name": "G4",
          "ticks": 5760,
          "time": 37.89474,
          "velocity": 0.7952755905511811
        },
        {
          "duration": 0.31578950000000106,
          "durationTicks": 48,
          "midi": 55,
          "name": "G3",
          "ticks": 5760,
          "time": 37.89474,
          "velocity": 0.7952755905511811
        },
        {
          "duration": 0.31578950000000106,
          "durationTicks": 48,
          "midi": 65,
          "name": "F4",
          "ticks": 5808,
          "time": 38.2105295,
          "velocity": 0.7952755905511811
        },
        {
          "duration": 0.31578950000000106,
          "durationTicks": 48,
          "midi": 53,
          "name": "F3",
          "ticks": 5808,
          "time": 38.2105295,
          "velocity": 0.7952755905511811
        },
        {
          "duration": 0.31578950000000106,
          "durationTicks": 48,
          "midi": 63,
          "name": "D#4",
          "ticks": 5856,
          "time": 38.526319,
          "velocity": 0.7952755905511811
        },
        {
          "duration": 0.31578950000000106,
          "durationTicks": 48,
          "midi": 51,
          "name": "D#3",
          "ticks": 5856,
          "time": 38.526319,
          "velocity": 0.7952755905511811
        },
        {
          "duration": 0.31578950000000106,
          "durationTicks": 48,
          "midi": 59,
          "name": "B3",
          "ticks": 5904,
          "time": 38.8421085,
          "velocity": 0.7952755905511811
        },
        {
          "duration": 0.31578950000000106,
          "durationTicks": 48,
          "midi": 47,
          "name": "B2",
          "ticks": 5904,
          "time": 38.8421085,
          "velocity": 0.7952755905511811
        },
        {
          "duration": 0.31578949999999395,
          "durationTicks": 48,
          "midi": 67,
          "name": "G4",
          "ticks": 5952,
          "time": 39.157898,
          "velocity": 0.7952755905511811
        },
        {
          "duration": 0.31578949999999395,
          "durationTicks": 48,
          "midi": 55,
          "name": "G3",
          "ticks": 5952,
          "time": 39.157898,
          "velocity": 0.7952755905511811
        },
        {
          "duration": 0.31578950000000106,
          "durationTicks": 48,
          "midi": 65,
          "name": "F4",
          "ticks": 6000,
          "time": 39.4736875,
          "velocity": 0.7874015748031497
        },
        {
          "duration": 0.31578950000000106,
          "durationTicks": 48,
          "midi": 53,
          "name": "F3",
          "ticks": 6000,
          "time": 39.4736875,
          "velocity": 0.7874015748031497
        },
        {
          "duration": 0.31578950000000106,
          "durationTicks": 48,
          "midi": 63,
          "name": "D#4",
          "ticks": 6048,
          "time": 39.789477,
          "velocity": 0.7874015748031497
        },
        {
          "duration": 0.31578950000000106,
          "durationTicks": 48,
          "midi": 51,
          "name": "D#3",
          "ticks": 6048,
          "time": 39.789477,
          "velocity": 0.7874015748031497
        },
        {
          "duration": 0.3092105520833357,
          "durationTicks": 47,
          "midi": 59,
          "name": "B3",
          "ticks": 6096,
          "time": 40.1052665,
          "velocity": 0.7874015748031497
        },
        {
          "duration": 0.3092105520833357,
          "durationTicks": 47,
          "midi": 47,
          "name": "B2",
          "ticks": 6096,
          "time": 40.1052665,
          "velocity": 0.7874015748031497
        }
      ],
      "endOfTrackTicks": 6145
    }
  ]
}]]